<svg xmlns="http://www.w3.org/2000/svg" xmlns:xlink="http://www.w3.org/1999/xlink" width="500" zoomAndPan="magnify" viewBox="0 0 375 374.999991" height="500" preserveAspectRatio="xMidYMid meet" version="1.0"><defs><g/></defs><g fill="#ffffff" fill-opacity="1"><g transform="translate(57.573051, 175.288231)"><g><path d="M 37.875 -79.109375 C 49.570312 -79.109375 59.851562 -76.203125 68.71875 -70.390625 L 61.234375 -54.859375 C 57.128906 -57.242188 52.726562 -59.195312 48.03125 -60.71875 C 43.34375 -62.25 39.398438 -63.015625 36.203125 -63.015625 C 30.460938 -63.015625 27.59375 -61.113281 27.59375 -57.3125 C 27.59375 -54.851562 29.007812 -52.878906 31.84375 -51.390625 C 34.675781 -49.898438 38.117188 -48.613281 42.171875 -47.53125 C 46.234375 -46.457031 50.296875 -45.15625 54.359375 -43.625 C 58.421875 -42.101562 61.863281 -39.628906 64.6875 -36.203125 C 67.519531 -32.773438 68.9375 -28.453125 68.9375 -23.234375 C 68.9375 -15.710938 65.992188 -9.847656 60.109375 -5.640625 C 54.222656 -1.429688 46.738281 0.671875 37.65625 0.671875 C 31.175781 0.671875 24.769531 -0.441406 18.4375 -2.671875 C 12.101562 -4.910156 6.59375 -7.96875 1.90625 -11.84375 L 9.609375 -27.15625 C 13.554688 -23.726562 18.210938 -20.914062 23.578125 -18.71875 C 28.941406 -16.519531 33.707031 -15.421875 37.875 -15.421875 C 41.082031 -15.421875 43.578125 -16 45.359375 -17.15625 C 47.148438 -18.3125 48.046875 -20.003906 48.046875 -22.234375 C 48.046875 -24.390625 47.019531 -26.191406 44.96875 -27.640625 C 42.925781 -29.097656 40.375 -30.179688 37.3125 -30.890625 C 34.257812 -31.597656 30.945312 -32.546875 27.375 -33.734375 C 23.800781 -34.929688 20.484375 -36.238281 17.421875 -37.65625 C 14.367188 -39.070312 11.816406 -41.320312 9.765625 -44.40625 C 7.722656 -47.5 6.703125 -51.207031 6.703125 -55.53125 C 6.703125 -62.6875 9.550781 -68.40625 15.25 -72.6875 C 20.945312 -76.96875 28.488281 -79.109375 37.875 -79.109375 Z M 37.875 -79.109375 "/></g></g></g><g fill="#ffffff" fill-opacity="1"><g transform="translate(135.442451, 175.288231)"><g><path d="M 27.703125 0 L 7.828125 0 L 7.828125 -78.21875 L 27.703125 -78.21875 Z M 27.703125 0 "/></g></g></g><g fill="#ffffff" fill-opacity="1"><g transform="translate(176.891584, 175.288231)"><g><path d="M 93.75 0 L 76.203125 0 L 76.09375 -50.84375 L 57.3125 -7.828125 L 44.359375 -7.828125 L 25.59375 -50.84375 L 25.59375 0 L 7.828125 0 L 7.828125 -78.328125 L 29.609375 -78.328125 L 50.84375 -31.734375 L 72.0625 -78.328125 L 93.75 -78.328125 Z M 93.75 0 "/></g></g></g><g fill="#ffffff" fill-opacity="1"><g transform="translate(57.573051, 286.720456)"><g><path d="M 7.828125 -78.21875 L 41.90625 -78.21875 C 51.882812 -78.21875 59.628906 -75.851562 65.140625 -71.125 C 70.648438 -66.394531 73.40625 -59.671875 73.40625 -50.953125 C 73.40625 -41.785156 70.648438 -34.671875 65.140625 -29.609375 C 59.628906 -24.546875 51.882812 -22.015625 41.90625 -22.015625 L 27.703125 -22.015625 L 27.703125 0 L 7.828125 0 Z M 27.703125 -62.578125 L 27.703125 -37.65625 L 40.890625 -37.65625 C 45.285156 -37.65625 48.675781 -38.734375 51.0625 -40.890625 C 53.445312 -43.054688 54.640625 -46.1875 54.640625 -50.28125 C 54.640625 -54.300781 53.445312 -57.351562 51.0625 -59.4375 C 48.675781 -61.53125 45.285156 -62.578125 40.890625 -62.578125 Z M 27.703125 -62.578125 "/></g></g></g><g fill="#ffffff" fill-opacity="1"><g transform="translate(139.464315, 286.720456)"><g><path d="M 27.703125 -16.640625 L 60.890625 -16.640625 L 60.890625 0 L 7.828125 0 L 7.828125 -78.21875 L 27.703125 -78.21875 Z M 27.703125 -16.640625 "/></g></g></g><g fill="#ffffff" fill-opacity="1"><g transform="translate(207.949342, 286.720456)"><g><path d="M 69.046875 -62.578125 L 27.703125 -62.578125 L 27.703125 -47.046875 L 65.03125 -47.046875 L 65.03125 -31.390625 L 27.703125 -31.390625 L 27.703125 -15.640625 L 70.28125 -15.640625 L 70.28125 0 L 7.828125 0 L 7.828125 -78.21875 L 69.046875 -78.21875 Z M 69.046875 -62.578125 "/></g></g></g><g fill="#ffffff" fill-opacity="1"><g transform="translate(0.0000045, 161.874852)"><g><path d="M 51.4375 -8.328125 L 51.4375 -2.234375 L 5.78125 -22.9375 L 5.78125 -28.40625 L 51.4375 -49.109375 L 51.4375 -43.015625 L 13.1875 -25.671875 Z M 51.4375 -8.328125 "/></g></g></g><g fill="#ffffff" fill-opacity="1"><g transform="translate(289.564205, 282.394922)"><g><path d="M 29.125 -68.6875 L 5.984375 1.421875 L -0.90625 1.421875 L 22.328125 -68.6875 Z M 29.125 -68.6875 "/></g></g></g><g fill="#ffffff" fill-opacity="1"><g transform="translate(317.770846, 282.394922)"><g><path d="M 5.78125 -8.328125 L 44.03125 -25.671875 L 5.78125 -43.015625 L 5.78125 -49.109375 L 51.4375 -28.40625 L 51.4375 -22.9375 L 5.78125 -2.234375 Z M 5.78125 -8.328125 "/></g></g></g></svg>